<svg xmlns="http://www.w3.org/2000/svg" viewBox="0 0 380 300">
  <rect width="380" height="300" fill="#2B2E33"></rect>
  <text x="10" y="20" font-family="monospace" font-size="10" fill="#C89B4A" text-anchor="start">HERO PLATFORM — DETAIL PLAN (1:50)</text>
  <rect x="40" y="40" width="300" height="220" fill="#7C8085" opacity="0.3" stroke="#7C8085" stroke-width="2"></rect>
  <line x1="90" y1="40" x2="90" y2="260" stroke="#7C8085" stroke-width="0.6" opacity="0.5"></line><line x1="140" y1="40" x2="140" y2="260" stroke="#7C8085" stroke-width="0.6" opacity="0.5"></line><line x1="190" y1="40" x2="190" y2="260" stroke="#7C8085" stroke-width="0.6" opacity="0.5"></line><line x1="240" y1="40" x2="240" y2="260" stroke="#7C8085" stroke-width="0.6" opacity="0.5"></line><line x1="290" y1="40" x2="290" y2="260" stroke="#7C8085" stroke-width="0.6" opacity="0.5"></line>
  <line x1="40" y1="95" x2="340" y2="95" stroke="#7C8085" stroke-width="0.6" opacity="0.5"></line><line x1="40" y1="150" x2="340" y2="150" stroke="#7C8085" stroke-width="0.6" opacity="0.5"></line><line x1="40" y1="205" x2="340" y2="205" stroke="#7C8085" stroke-width="0.6" opacity="0.5"></line>
  <line x1="40" y1="150" x2="340" y2="150" stroke="#C89B4A" stroke-width="1" stroke-dasharray="2 4"></line>
  <line x1="190" y1="40" x2="190" y2="260" stroke="#C89B4A" stroke-width="1" stroke-dasharray="2 4"></line>
  <text x="344" y="153" font-family="monospace" font-size="6.5" fill="#C89B4A" text-anchor="start">DATUM X</text>
  <text x="190" y="36" font-family="monospace" font-size="6.5" fill="#C89B4A" text-anchor="middle">DATUM Y</text>
  <rect x="115" y="95" width="150" height="110" fill="none" stroke="#E1602E" stroke-width="1.5"></rect>
  <text x="190" y="90" font-family="monospace" font-size="7" fill="#E1602E" text-anchor="middle">LASER GUIDE ENVELOPE — TRUCK FOOTPRINT</text>
  <line x1="40" y1="264" x2="340" y2="264" stroke="#4FC7D6" stroke-width="1"></line>
  <text x="190" y="276" font-family="monospace" font-size="7" fill="#4FC7D6" text-anchor="middle">INSPECTION RAIL, EMBEDDED, FULL WIDTH</text>
  <text x="48" y="54" font-family="monospace" font-size="6.5" fill="#F2EEE6" text-anchor="start">PLATE 01</text><text x="98" y="54" font-family="monospace" font-size="6.5" fill="#F2EEE6" text-anchor="start">PLATE 02</text><text x="148" y="54" font-family="monospace" font-size="6.5" fill="#F2EEE6" text-anchor="start">PLATE 03</text>
  <text x="40" y="292" font-family="monospace" font-size="7" fill="#F2EEE6" text-anchor="start">DRAINAGE AT PANEL JOINTS · EXPANSION JOINT EVERY 3 PANELS · OIL WEAR ZONES AT STATIONS</text>
</svg>