<svg xmlns="http://www.w3.org/2000/svg" viewBox="0 0 200 200"><rect width="200" height="200" fill="#1a1c1e"></rect><polygon points="0,40 20,20 40,40 30,40 20,30 10,40" fill="#C89B4A"></polygon><polygon points="0,84 20,64 40,84 30,84 20,74 10,84" fill="#C89B4A"></polygon><polygon points="0,128 20,108 40,128 30,128 20,118 10,128" fill="#C89B4A"></polygon><polygon points="0,172 20,152 40,172 30,172 20,162 10,172" fill="#C89B4A"></polygon><polygon points="0,216 20,196 40,216 30,216 20,206 10,216" fill="#C89B4A"></polygon></svg>