<svg xmlns="http://www.w3.org/2000/svg" viewBox="0 0 200 200"><rect width="200" height="200" fill="#2B2E33"></rect><rect x="10" y="20" width="6" height="146" fill="#7C8085"></rect><rect x="184" y="20" width="6" height="146" fill="#7C8085"></rect><rect x="10" y="20" width="180" height="6" fill="#7C8085"></rect><rect x="20" y="-5" width="30" height="24" fill="#C89B4A" opacity="0.7"></rect><rect x="70" y="-5" width="30" height="24" fill="#4FC7D6" opacity="0.5"></rect><rect x="130" y="-5" width="30" height="24" fill="#2E8F72" opacity="0.5"></rect><rect x="10" y="65" width="180" height="6" fill="#7C8085"></rect><rect x="20" y="40" width="30" height="24" fill="#C89B4A" opacity="0.7"></rect><rect x="70" y="40" width="30" height="24" fill="#4FC7D6" opacity="0.5"></rect><rect x="130" y="40" width="30" height="24" fill="#2E8F72" opacity="0.5"></rect><rect x="10" y="110" width="180" height="6" fill="#7C8085"></rect><rect x="20" y="85" width="30" height="24" fill="#C89B4A" opacity="0.7"></rect><rect x="70" y="85" width="30" height="24" fill="#4FC7D6" opacity="0.5"></rect><rect x="130" y="85" width="30" height="24" fill="#2E8F72" opacity="0.5"></rect><rect x="10" y="155" width="180" height="6" fill="#7C8085"></rect><rect x="20" y="130" width="30" height="24" fill="#C89B4A" opacity="0.7"></rect><rect x="70" y="130" width="30" height="24" fill="#4FC7D6" opacity="0.5"></rect><rect x="130" y="130" width="30" height="24" fill="#2E8F72" opacity="0.5"></rect></svg>