<svg xmlns="http://www.w3.org/2000/svg" viewBox="0 0 200 200"><rect width="200" height="200" fill="#7C8085"></rect><polygon points="10,10 190,10 190,14 30,20 10,20" fill="#2B2E33"></polygon><polygon points="10,26 190,26 190,30 30,36 10,36" fill="#2B2E33"></polygon><polygon points="10,42 190,42 190,46 30,52 10,52" fill="#2B2E33"></polygon><polygon points="10,58 190,58 190,62 30,68 10,68" fill="#2B2E33"></polygon><polygon points="10,74 190,74 190,78 30,84 10,84" fill="#2B2E33"></polygon><polygon points="10,90 190,90 190,94 30,100 10,100" fill="#2B2E33"></polygon><polygon points="10,106 190,106 190,110 30,116 10,116" fill="#2B2E33"></polygon><polygon points="10,122 190,122 190,126 30,132 10,132" fill="#2B2E33"></polygon><polygon points="10,138 190,138 190,142 30,148 10,148" fill="#2B2E33"></polygon><polygon points="10,154 190,154 190,158 30,164 10,164" fill="#2B2E33"></polygon><polygon points="10,170 190,170 190,174 30,180 10,180" fill="#2B2E33"></polygon><polygon points="10,186 190,186 190,190 30,196 10,196" fill="#2B2E33"></polygon></svg>