<svg xmlns="http://www.w3.org/2000/svg" viewBox="0 0 200 200"><rect width="200" height="200" fill="#7C8085"></rect><line x1="0" y1="0" x2="0" y2="200" stroke="#2B2E33" stroke-width="1"></line><line x1="12" y1="0" x2="12" y2="200" stroke="#2B2E33" stroke-width="1"></line><line x1="24" y1="0" x2="24" y2="200" stroke="#2B2E33" stroke-width="1"></line><line x1="36" y1="0" x2="36" y2="200" stroke="#2B2E33" stroke-width="1"></line><line x1="48" y1="0" x2="48" y2="200" stroke="#2B2E33" stroke-width="1"></line><line x1="60" y1="0" x2="60" y2="200" stroke="#2B2E33" stroke-width="1"></line><line x1="72" y1="0" x2="72" y2="200" stroke="#2B2E33" stroke-width="1"></line><line x1="84" y1="0" x2="84" y2="200" stroke="#2B2E33" stroke-width="1"></line><line x1="96" y1="0" x2="96" y2="200" stroke="#2B2E33" stroke-width="1"></line><line x1="108" y1="0" x2="108" y2="200" stroke="#2B2E33" stroke-width="1"></line><line x1="120" y1="0" x2="120" y2="200" stroke="#2B2E33" stroke-width="1"></line><line x1="132" y1="0" x2="132" y2="200" stroke="#2B2E33" stroke-width="1"></line><line x1="144" y1="0" x2="144" y2="200" stroke="#2B2E33" stroke-width="1"></line><line x1="156" y1="0" x2="156" y2="200" stroke="#2B2E33" stroke-width="1"></line><line x1="168" y1="0" x2="168" y2="200" stroke="#2B2E33" stroke-width="1"></line><line x1="180" y1="0" x2="180" y2="200" stroke="#2B2E33" stroke-width="1"></line><line x1="192" y1="0" x2="192" y2="200" stroke="#2B2E33" stroke-width="1"></line><line x1="0" y1="0" x2="200" y2="0" stroke="#2B2E33" stroke-width="1"></line><line x1="0" y1="12" x2="200" y2="12" stroke="#2B2E33" stroke-width="1"></line><line x1="0" y1="24" x2="200" y2="24" stroke="#2B2E33" stroke-width="1"></line><line x1="0" y1="36" x2="200" y2="36" stroke="#2B2E33" stroke-width="1"></line><line x1="0" y1="48" x2="200" y2="48" stroke="#2B2E33" stroke-width="1"></line><line x1="0" y1="60" x2="200" y2="60" stroke="#2B2E33" stroke-width="1"></line><line x1="0" y1="72" x2="200" y2="72" stroke="#2B2E33" stroke-width="1"></line><line x1="0" y1="84" x2="200" y2="84" stroke="#2B2E33" stroke-width="1"></line><line x1="0" y1="96" x2="200" y2="96" stroke="#2B2E33" stroke-width="1"></line><line x1="0" y1="108" x2="200" y2="108" stroke="#2B2E33" stroke-width="1"></line><line x1="0" y1="120" x2="200" y2="120" stroke="#2B2E33" stroke-width="1"></line><line x1="0" y1="132" x2="200" y2="132" stroke="#2B2E33" stroke-width="1"></line><line x1="0" y1="144" x2="200" y2="144" stroke="#2B2E33" stroke-width="1"></line><line x1="0" y1="156" x2="200" y2="156" stroke="#2B2E33" stroke-width="1"></line><line x1="0" y1="168" x2="200" y2="168" stroke="#2B2E33" stroke-width="1"></line><line x1="0" y1="180" x2="200" y2="180" stroke="#2B2E33" stroke-width="1"></line><line x1="0" y1="192" x2="200" y2="192" stroke="#2B2E33" stroke-width="1"></line></svg>