<svg xmlns="http://www.w3.org/2000/svg" viewBox="0 0 220 150">
    <rect width="220" height="150" fill="#2B2E33"></rect>
    <rect x="30" y="60" width="160" height="16" fill="#7C8085"></rect><line x1="40" y1="62" x2="40" y2="74" stroke="#F2EEE6" stroke-width="0.5" opacity="0.4"></line><line x1="60" y1="62" x2="60" y2="74" stroke="#F2EEE6" stroke-width="0.5" opacity="0.4"></line><line x1="80" y1="62" x2="80" y2="74" stroke="#F2EEE6" stroke-width="0.5" opacity="0.4"></line><line x1="100" y1="62" x2="100" y2="74" stroke="#F2EEE6" stroke-width="0.5" opacity="0.4"></line><line x1="120" y1="62" x2="120" y2="74" stroke="#F2EEE6" stroke-width="0.5" opacity="0.4"></line><line x1="140" y1="62" x2="140" y2="74" stroke="#F2EEE6" stroke-width="0.5" opacity="0.4"></line><line x1="160" y1="62" x2="160" y2="74" stroke="#F2EEE6" stroke-width="0.5" opacity="0.4"></line><line x1="180" y1="62" x2="180" y2="74" stroke="#F2EEE6" stroke-width="0.5" opacity="0.4"></line><rect x="45" y="76" width="10" height="50" fill="#1c1e21"></rect><rect x="165" y="76" width="10" height="50" fill="#1c1e21"></rect>
    <line x1="30" y1="132" x2="190" y2="132" stroke="#4FC7D6" stroke-width="1"></line><polygon points="30,132 36,129 36,135" fill="#4FC7D6"></polygon><polygon points="190,132 184,129 184,135" fill="#4FC7D6"></polygon><text x="110" y="126" font-family="monospace" font-size="8" fill="#4FC7D6" text-anchor="middle">1600mm</text>
    <text x="10" y="18" font-family="monospace" font-size="9" fill="#C89B4A">MACHINE — INSPECTION TABLE</text>
  </svg>